<?xml version="1.0" standalone="no"?>
<!DOCTYPE svg PUBLIC "-//W3C//DTD SVG 20010904//EN"
 "http://www.w3.org/TR/2001/REC-SVG-20010904/DTD/svg10.dtd">
<svg version="1.0" xmlns="http://www.w3.org/2000/svg"
 width="300.000000pt" height="292.000000pt" viewBox="0 0 300.000000 292.000000"
 preserveAspectRatio="xMidYMid meet">
<metadata>
</metadata>
<g transform="translate(0.000000,292.000000) scale(0.100000,-0.100000)"
fill="#114FC8" stroke="none">
    <path d="M1050 1669 c-183 -19 -412 -69 -624 -135 -101 -31 -150 -60 -154 -93
    -4 -29 14 -74 39 -97 18 -16 19 -16 19 16 0 25 9 42 38 70 81 76 258 106 576
    97 109 -3 196 -4 195 -2 -2 2 -75 9 -163 16 -150 12 -186 21 -186 49 0 4 44
    13 98 20 270 32 432 34 542 5 63 -16 263 -95 257 -102 -2 -1 -34 1 -72 6 -53
    6 -72 13 -86 30 -25 31 -96 41 -105 16 -4 -10 -3 -25 3 -34 13 -20 79 -27 383
    -41 385 -16 542 -57 641 -167 32 -36 37 -38 79 -33 l45 5 -55 42 c-145 110
    -367 173 -613 173 -89 0 -102 3 -150 29 -216 121 -422 159 -707 130z m-282
    -104 c-2 -3 -43 -8 -91 -13 -47 -4 -84 -6 -81 -3 3 3 42 15 87 26 68 18 83 19
    85 7 2 -7 2 -15 0 -17z m-398 -96 c-14 -11 -36 -31 -50 -43 -23 -21 -26 -22
    -26 -6 0 10 4 16 8 14 4 -3 8 2 8 10 0 16 45 45 70 45 10 0 7 -6 -10 -20z"/>
    <path d="M802 1495 c60 -20 104 -64 122 -123 13 -45 14 -46 21 -19 7 26 5 44
    -9 77 -5 13 43 15 401 15 225 0 386 3 358 7 -27 4 -219 16 -425 28 -206 12
    -406 23 -445 26 l-70 4 47 -15z m125 -31 c-3 -3 -12 -4 -19 -1 -8 3 -5 6 6 6
    11 1 17 -2 13 -5z"/>
    <path d="M2043 1419 c-42 -21 -103 -80 -103 -100 0 -6 11 3 25 19 38 45 101
    72 168 72 71 0 120 -20 171 -68 36 -34 38 -35 19 -7 -68 98 -182 133 -280 84z"/>
    <path d="M1061 1379 c54 -69 56 -69 445 -69 191 0 345 2 342 5 -3 3 -158 10
    -345 14 -187 5 -348 13 -357 18 -10 5 -26 22 -36 38 -12 19 -29 29 -50 32
    l-32 3 33 -41z"/>
</g>
</svg>
