<svg width="809" height="216" viewBox="0 0 609 116" fill="none" xmlns="http://www.w3.org/2000/svg">
<path d="M403.108 2.72984C451.481 8.33223 512.014 23.0754 568.052 42.5363C594.75 51.6771 607.702 60.2281 608.76 69.9586C609.817 78.5096 605.059 91.7785 598.451 98.5603C593.693 103.278 593.428 103.278 593.428 93.8425C593.428 86.4709 591.049 81.4583 583.384 73.2021C561.973 50.7925 515.186 41.9466 431.128 44.6004C402.315 45.485 379.318 45.7798 379.583 45.1901C380.111 44.6004 399.408 42.5363 422.669 40.4723C462.319 36.9339 471.835 34.2802 471.835 26.024C471.835 24.8446 460.204 22.1908 445.93 20.1268C374.56 10.6911 331.738 10.1014 302.662 18.6524C286.009 23.3702 233.142 46.6644 234.728 48.7285C235.257 49.0233 243.715 48.4336 253.76 46.9593C267.77 45.1901 272.792 43.1261 276.493 38.1134C283.101 28.9726 301.869 26.024 304.248 33.3956C305.305 36.3442 305.041 40.7672 303.455 43.4209C300.018 49.3182 282.572 51.3822 202.215 55.5103C100.447 60.2281 58.9463 72.3175 32.7773 104.752C24.3186 115.368 22.997 115.957 11.895 114.483L-1.86067e-05 113.009L14.5383 100.624C52.8666 68.1894 111.549 49.6131 176.575 49.6131C200.1 49.6131 203.537 48.7285 216.225 41.062C273.321 5.3836 327.773 -5.82119 403.108 2.72984ZM477.65 33.3956C478.179 34.2802 489.017 35.7545 501.705 37.2288C514.128 38.4083 523.909 38.998 523.116 38.1134C522.323 37.2288 512.014 33.6905 500.119 30.447C482.144 25.1394 478.179 24.8446 477.65 28.3829C477.122 30.447 477.122 32.8059 477.65 33.3956ZM582.855 61.7024C586.556 64.9459 592.371 70.8432 596.072 74.3815C602.151 80.5737 602.944 80.8685 602.944 76.1507C602.944 73.2021 601.887 71.4329 600.83 72.0226C599.772 72.9072 598.715 71.4329 598.715 69.074C598.715 64.3562 586.82 55.8052 580.212 55.8052C577.568 55.8052 578.361 57.5744 582.855 61.7024Z" fill="#114FC8"/>
<path d="M468.663 54.036C452.803 59.9333 441.172 72.9072 436.414 90.3041C432.978 103.573 432.714 103.868 430.863 95.9065C429.013 88.2401 429.542 82.9326 433.242 73.2021C434.564 69.3689 421.876 68.7792 327.245 68.7792C267.77 68.7792 225.212 67.8946 232.613 66.7151C239.75 65.5357 290.502 61.9973 344.955 58.459C399.408 54.9206 452.274 51.6771 462.583 50.7925L481.087 49.6131L468.663 54.036ZM435.621 63.1768C436.414 64.0613 438.793 64.3562 440.644 63.4716C442.758 62.587 441.965 61.7024 439.058 61.7024C436.15 61.4076 434.564 62.2922 435.621 63.1768Z" fill="#114FC8"/>
<path d="M140.625 76.4456C151.727 82.6377 167.852 100.035 167.852 105.932C167.852 107.701 164.944 105.047 161.243 100.33C151.199 87.0607 134.546 79.0993 116.835 79.0993C98.0676 79.0993 85.1153 84.9966 71.6343 99.1501C62.1183 109.175 61.5896 109.47 66.6119 101.214C84.5866 72.3175 114.721 61.9973 140.625 76.4456Z" fill="#114FC8"/>
<path d="M400.201 88.2401C385.927 108.586 385.398 108.586 282.572 108.586C232.085 108.586 191.377 107.996 192.17 107.111C192.963 106.227 233.935 104.163 283.365 102.983C332.796 101.509 375.353 99.15 377.732 97.6757C380.376 96.2014 384.605 91.1887 387.248 86.4709C390.42 80.8685 394.914 77.9199 400.465 77.0353L408.924 76.1507L400.201 88.2401Z" fill="#114FC8"/>
</svg>
