

<svg width="609" height="165" xmlns="http://www.w3.org/2000/svg" fill="none">
 <g>
  <title>Layer 1</title>
  <path id="svg_1" fill="#114fc8" d="m403.108,2.72984c48.373,5.60239 108.906,20.34556 164.944,39.80646c26.698,9.1408 39.65,17.6918 40.708,27.4223c1.057,8.551 -3.701,21.8199 -10.309,28.6017c-4.758,4.7177 -5.023,4.7177 -5.023,-4.7178c0,-7.3716 -2.379,-12.3842 -10.044,-20.6404c-21.411,-22.4096 -68.198,-31.2555 -152.256,-28.6017c-28.813,0.8846 -51.81,1.1794 -51.545,0.5897c0.528,-0.5897 19.825,-2.6538 43.086,-4.7178c39.65,-3.5384 49.166,-6.1921 49.166,-14.4483c0,-1.1794 -11.631,-3.8332 -25.905,-5.8972c-71.37,-9.4357 -114.192,-10.0254 -143.268,-1.4744c-16.653,4.7178 -69.52,28.012 -67.934,30.0761c0.529,0.2948 8.987,-0.2949 19.032,-1.7692c14.01,-1.7692 19.032,-3.8332 22.733,-8.8459c6.608,-9.1408 25.376,-12.0894 27.755,-4.7178c1.057,2.9486 0.793,7.3716 -0.793,10.0253c-3.437,5.8973 -20.883,7.9613 -101.24,12.0894c-101.768,4.7178 -143.2687,16.8072 -169.4377,49.2417c-8.4587,10.616 -9.7803,11.205 -20.8823,9.731l-11.89502,-1.474l14.53832,-12.385c38.3283,-32.4346 97.0107,-51.0109 162.0367,-51.0109c23.525,0 26.962,-0.8846 39.65,-8.5511c57.096,-35.6784 111.548,-46.88319 186.883,-38.33216zm74.542,30.66576c0.529,0.8846 11.367,2.3589 24.055,3.8332c12.423,1.1795 22.204,1.7692 21.411,0.8846c-0.793,-0.8846 -11.102,-4.4229 -22.997,-7.6664c-17.975,-5.3076 -21.94,-5.6024 -22.469,-2.0641c-0.528,2.0641 -0.528,4.423 0,5.0127zm105.205,28.3068c3.701,3.2435 9.516,9.1408 13.217,12.6791c6.079,6.1922 6.872,6.487 6.872,1.7692c0,-2.9486 -1.057,-4.7178 -2.114,-4.1281c-1.058,0.8846 -2.115,-0.5897 -2.115,-2.9486c0,-4.7178 -11.895,-13.2688 -18.503,-13.2688c-2.644,0 -1.851,1.7692 2.643,5.8972z" stroke="null"/>
  <path id="svg_2" fill="#114fc8" d="m468.663,54.036c-15.86,5.8973 -27.491,18.8712 -32.249,36.2681c-3.436,13.2689 -3.7,13.5639 -5.551,5.6024c-1.85,-7.6664 -1.321,-12.9739 2.379,-22.7044c1.322,-3.8332 -11.366,-4.4229 -105.997,-4.4229c-59.475,0 -102.033,-0.8846 -94.632,-2.0641c7.137,-1.1794 57.889,-4.7178 112.342,-8.2561c54.453,-3.5384 107.319,-6.7819 117.628,-7.6665l18.504,-1.1794l-12.424,4.4229zm-33.042,9.1408c0.793,0.8845 3.172,1.1794 5.023,0.2948c2.114,-0.8846 1.321,-1.7692 -1.586,-1.7692c-2.908,-0.2948 -4.494,0.5898 -3.437,1.4744z"/>
  <path id="svg_3" fill="#114fc8" d="m140.625,77.4456c11.102,6.1921 27.227,23.5894 27.227,29.4864c0,1.769 -2.908,-0.885 -6.609,-5.602c-10.044,-13.2693 -26.697,-21.2307 -44.408,-21.2307c-18.7674,0 -31.7197,5.8973 -45.2007,20.0508c-9.516,10.0249 -10.0447,10.3199 -5.0224,2.0639c17.9747,-28.8965 48.1091,-39.2167 74.0131,-24.7684z"/>
  <path id="svg_4" fill="#114fc8" d="m400.201,88.2401c-14.274,20.3459 -14.803,20.3459 -117.629,20.3459c-50.487,0 -91.195,-0.59 -90.402,-1.475c0.793,-0.884 41.765,-2.948 91.195,-4.128c49.431,-1.474 91.988,-3.833 94.367,-5.3073c2.644,-1.4743 6.873,-6.487 9.516,-11.2048c3.172,-5.6024 7.666,-8.551 13.217,-9.4356l8.459,-0.8846l-8.723,12.0894z"/>
  <text xml:space="preserve" text-anchor="start" font-family="'Ropa Sans', sans-serif, cursive" font-size="34" stroke-width="0" id="svg_6" y="29.64054" x="109.36597" fill="#114fc8" stroke="#000" transform="matrix(1.46323 0 0 1.35059 -90.525 -3.6264)">T.E.X</text>
  <path id="svg_8" fill="#114fc8" d="m541.32081,60.69813c11.63379,4.52326 28.53119,17.23179 28.53119,21.53948c0,1.29223 -3.0473,-0.64648 -6.92558,-4.0922c-10.52511,-9.69307 -27.97581,-15.50879 -46.53517,-15.50879c-19.66637,0 -33.2391,4.30791 -47.36585,14.64688c-9.97182,7.32308 -10.52585,7.53857 -5.26298,1.50766c18.8357,-21.10857 50.41356,-28.64736 77.55838,-18.09304l0.00001,0.00001z" stroke="null"/>
  <text xml:space="preserve" text-anchor="start" font-family="'Ropa Sans', sans-serif, cursive" font-size="34" stroke-width="0" id="svg_11" y="113.46505" x="255.29779" fill="#114fc8" stroke="#000" transform="matrix(1.87864 0 0 1.47231 -437.082 -5.71322)">AUTO DETAILING</text>
 </g>
</svg>